{"title":"Tinie Tempah Ft. Labrinth - Lover Not A Fighter [Music Video] 72","uid":9392540,"size":39174742,"categoryP":"video","categoryS":"music_videos","magnet":"?xt=urn:btih:b4de1e6e1137d54a56d05de651778e806fa5f7bd&amp;dn=Tinie+Tempah+Ft.+Labrinth+-+Lover+Not+A+Fighter+%5BMusic+Video%5D+72&amp;tr=udp%3A%2F%2Ftracker.openbittorrent.com%3A80&amp;tr=udp%3A%2F%2Fopen.demonii.com%3A1337&amp;tr=udp%3A%2F%2Ftracker.coppersurfer.tk%3A6969&amp;tr=udp%3A%2F%2Fexodus.desync.com%3A6969","seeders":1,"leechers":1,"uploader":"Sbyky","files":1,"time":1387911739,"description":"\n\nGeneral\nComplete name                            : Tinie Tempah Ft. Labrinth - Lover Not A Fighter [Music Video] 720p [Sbyky].mp4\nFormat                                   : MPEG-4\nFormat profile                           : Base Media\nCodec ID                                 : isom\nFile size                                : 37.4 MiB\nDuration                                 : 4mn 13s\nOverall bit rate mode                    : Variable\nOverall bit rate                         : 1 236 Kbps\nEncoded date                             : UTC 2013-12-15 04:46:50\nTagged date                              : UTC 2013-12-15 04:46:50\n\nVideo\nID                                       : 1\nFormat                                   : AVC\nFormat/Info                              : Advanced Video Codec\nFormat profile                           : &lt;a class=&quot;__cf_email__&quot; href=&quot;/cdn-cgi/l/email-protection&quot; data-cfemail=&quot;307d51595e707c031e01&quot;&gt;[email&amp;#160;protected]&lt;/a&gt;&lt;script cf-hash='f9e31' type=&quot;text/javascript&quot;&gt;\n/* &lt;![CDATA[ */!function(){try{var t=&quot;currentScript&quot;in document?document.currentScript:function(){for(var t=document.getElementsByTagName(&quot;script&quot;),e=t.length;e--;)if(t[e].getAttribute(&quot;cf-hash&quot;))return t[e]}();if(t&amp;&amp;t.previousSibling){var e,r,n,i,c=t.previousSibling,a=c.getAttribute(&quot;data-cfemail&quot;);if(a){for(e=&quot;&quot;,r=parseInt(a.substr(0,2),16),n=2;a.length-n;n+=2)i=parseInt(a.substr(n,2),16)^r,e+=String.fromCharCode(i);e=document.createTextNode(e),c.parentNode.replaceChild(e,c)}}}catch(u){}}();/* ]]&gt; */&lt;/script&gt;\nFormat settings, CABAC                   : Yes\nFormat settings, ReFrames                : 3 frames\nCodec ID                                 : avc1\nCodec ID/Info                            : Advanced Video Coding\nDuration                                 : 4mn 13s\nBit rate                                 : 1 107 Kbps\nWidth                                    : 1 280 pixels\nHeight                                   : 720 pixels\nDisplay aspect ratio                     : 16:9\nFrame rate mode                          : Constant\nFrame rate                               : 25.000 fps\nColor space                              : YUV\nChroma subsampling                       : 4:2:0\nBit depth                                : 8 bits\nScan type                                : Progressive\nBits/(Pixel*Frame)                       : 0.048\nStream size                              : 33.5 MiB (90%)\nEncoded date                             : UTC 2013-12-15 04:46:50\nTagged date                              : UTC 2013-12-15 04:46:50\n\nAudio\nID                                       : 2\nFormat                                   : AAC\nFormat/Info                              : Advanced Audio Codec\nFormat profile                           : LC\nCodec ID                                 : 40\nDuration                                 : 4mn 13s\nBit rate mode                            : Variable\nBit rate                                 : 126 Kbps\nChannel(s)                               : 2 channels\nChannel positions                        : Front: L R\nSampling rate                            : 44.1 KHz\nCompression mode                         : Lossy\nDelay relative to video                  : 40ms\nStream size                              : 3.80 MiB (10%)\nEncoded date                             : UTC 2013-12-15 04:46:41\nTagged date                              : UTC 2013-12-15 04:46:41\n\nShared By Sbyky\n","torrent":{"xt":"urn:btih:b4de1e6e1137d54a56d05de651778e806fa5f7bd","amp;dn":"Tinie+Tempah+Ft.+Labrinth+-+Lover+Not+A+Fighter+%5BMusic+Video%5D+72","amp;tr":["udp%3A%2F%2Ftracker.openbittorrent.com%3A80","udp%3A%2F%2Fopen.demonii.com%3A1337","udp%3A%2F%2Ftracker.coppersurfer.tk%3A6969","udp%3A%2F%2Fexodus.desync.com%3A6969"],"infoHash":"b4de1e6e1137d54a56d05de651778e806fa5f7bd","infoHashBuffer":{"type":"Buffer","data":[180,222,30,110,17,55,213,74,86,208,93,230,81,119,142,128,111,165,247,189]},"announce":[],"urlList":[]}}